<?xml version="1.0" encoding="utf-8"?>
<svg version="1.2" baseProfile="tiny" id="1" xmlns="http://www.w3.org/2000/svg" xmlns:xlink="http://www.w3.org/1999/xlink"  x="0px" y="0px" width="60" height="30" viewBox="0 0 60.4861 29.9991" xml:space="preserve">
	<g>
	    <circle fill="#18A5D0" cx="53.8678" cy="23.3808" r="6.6182"/>
	    <circle fill="#39AA9F" cx="53.8678" cy="23.3808" r="6.6182"/>
	    <path fill="#1E325C" d="M37.0244,13.0494h3.4746V8.4388c0-0.0002,0-0.0004,0-0.0006c0-2.7414,2.2223-4.9637,4.9637-4.9637
	    	c2.7413,0,4.9636,2.2223,4.9637,4.9636h0v1.1451h3.4746V8.4382h0C53.9009,3.7779,50.1229,0,45.4626,0
	    	c-4.6603,0-8.4383,3.7779-8.4383,8.4383c0,0.0001,0,0.0002,0,0.0003V13.0494z"/>
	    <path fill="#1E325C" d="M55.2875,13.0494H35.521c-0.728,0-1.3236,0.5956-1.3236,1.3236v14.1631
	    	c0,0.728,0.5956,1.3237,1.3236,1.3237h12.9033c-1.405-1.1817-2.4201-2.8116-2.8252-4.6695h-0.1948h-0.9339v-3.0536
	    	c-0.5577-0.3231-0.9339-0.925-0.9339-1.6159c0-1.0316,0.8363-1.8678,1.8678-1.8678c0.4472,0,0.8574,0.1576,1.179,0.4197
	    	c1.4741-2.487,4.1838-4.1554,7.2845-4.1554c0.9606,0,1.8827,0.1623,2.7434,0.4572v-1.0013
	    	C56.6112,13.6451,56.0155,13.0494,55.2875,13.0494z"/>
	    <path fill="#FFFFFF" d="M57.4465,25.5054c0,0,0.1622-1.4072-1.2078-1.6417c0,0-1.096-0.3127-1.096-0.3909
	    	c0,0-0.6393-0.1564-0.274-0.5472c0.3653-0.3909,0.7307-0.8599,0.7307-1.9544c0-1.0945-0.4567-1.9544-1.7353-1.9544
	    	c-1.2787,0-1.7354,0.8599-1.7354,1.9544c0,1.0945,0.3653,1.5635,0.7307,1.9544c0.3653,0.3909-0.274,0.5472-0.274,0.5472
	    	c0,0.0782-1.096,0.3909-1.096,0.3909c-1.37,0.2345-1.3168,1.6417-1.3168,1.6417l0.2514,1.4359c0,0,1.8589,0.7451,3.4947,0.7451
	    	s3.2762-0.745,3.2762-0.745L57.4465,25.5054z"/>
    </g>
	<g>
        <path fill="#39AA9F" d="M0,29.9991l12.3933-12.3933c1.4334-1.4334,1.4334-3.779,0-5.2124L0,0v5.2929l7.1004,7.1004
	    c1.4334,1.4334,1.4334,3.779,0,5.2124L0,24.7061V29.9991z"/>
	</g>
</svg>
